<?xml version="1.0" encoding="utf-8"?>
<!-- Generator: Adobe Illustrator 16.0.0, SVG Export Plug-In . SVG Version: 6.00 Build 0)  -->
<!DOCTYPE svg PUBLIC "-//W3C//DTD SVG 1.1//EN" "http://www.w3.org/Graphics/SVG/1.1/DTD/svg11.dtd">
<svg version="1.1" id="Layer_1" xmlns="http://www.w3.org/2000/svg" xmlns:xlink="http://www.w3.org/1999/xlink" x="0px" y="0px"
	 width="20px" height="17.259px" viewBox="0 0 20 17.259" enable-background="new 0 0 20 17.259" xml:space="preserve">
<g>
	<path fill="#FFFFFF" d="M8.495,7.262c1.073-0.026,4.454-2.908,7.458-5.52L14.947,0H4.982L3.815,2.021
		C5.333,4.086,7.075,7.295,8.495,7.262z"/>
	<path fill="#FFFFFF" d="M10.775,11.11c-1.048,0.025-3.913,2.543-6.508,4.91l0.715,1.239h9.965l0.797-1.382
		C14.398,14.526,12.234,11.076,10.775,11.11z"/>
	<path fill="#FFFFFF" d="M16.322,2.383l-5.471,5.319l-4.458,4.24c0,0,1.041-1.497,0.643-2.97C6.551,7.179,4.717,4.744,3.287,2.936
		L0,8.629l3.977,6.89l4.773-4.684l5.76-5.525c0,0-2.256,2.686-2.02,4.284c0.256,1.706,2.465,4.296,3.568,5.741l3.871-6.706
		L16.322,2.383z"/>
</g>
</svg>
