<?xml version="1.0" encoding="utf-8"?>
<!-- Generator: Adobe Illustrator 16.0.0, SVG Export Plug-In . SVG Version: 6.00 Build 0)  -->
<!DOCTYPE svg PUBLIC "-//W3C//DTD SVG 1.1//EN" "http://www.w3.org/Graphics/SVG/1.1/DTD/svg11.dtd">
<svg version="1.1" id="Layer_1" xmlns="http://www.w3.org/2000/svg" xmlns:xlink="http://www.w3.org/1999/xlink" x="0px" y="0px"
	 width="25px" height="25px" viewBox="0 0 25 25" enable-background="new 0 0 25 25" xml:space="preserve">
<g>
	<linearGradient id="SVGID_1_" gradientUnits="userSpaceOnUse" x1="12.4873" y1="23.1523" x2="12.4873" y2="1.6318">
		<stop  offset="0" style="stop-color:#00FFAB"/>
		<stop  offset="1" style="stop-color:#00A99D"/>
	</linearGradient>
	<path fill="url(#SVGID_1_)" d="M20.414,4.602l-6.822,6.632l-5.559,5.287c0,0,1.298-1.865,0.802-3.702
		C8.23,10.583,5.946,7.546,4.162,5.292l-4.1,7.101l4.958,8.587l5.952-5.839l7.182-6.889c0,0-2.812,3.35-2.516,5.342
		c0.316,2.127,3.07,5.356,4.447,7.157l4.826-8.359L20.414,4.602z"/>
	<linearGradient id="SVGID_2_" gradientUnits="userSpaceOnUse" x1="12.3862" y1="23.1523" x2="12.3862" y2="1.6309">
		<stop  offset="0" style="stop-color:#00FFAB"/>
		<stop  offset="1" style="stop-color:#00A99D"/>
	</linearGradient>
	<path fill="url(#SVGID_2_)" d="M10.655,10.686c1.336-0.032,5.554-3.625,9.298-6.882l-1.254-2.172H6.274L4.819,4.151
		C6.711,6.726,8.885,10.729,10.655,10.686z"/>
	<linearGradient id="SVGID_3_" gradientUnits="userSpaceOnUse" x1="12.5381" y1="23.1514" x2="12.5381" y2="1.6333">
		<stop  offset="0" style="stop-color:#00FFAB"/>
		<stop  offset="1" style="stop-color:#00A99D"/>
	</linearGradient>
	<path fill="url(#SVGID_3_)" d="M13.498,15.485c-1.307,0.031-4.878,3.171-8.116,6.122l0.892,1.544h12.425l0.994-1.724
		C18.018,19.745,15.318,15.441,13.498,15.485z"/>
</g>
</svg>
