<?xml version="1.0" encoding="utf-8"?>
<!-- Generator: Adobe Illustrator 16.0.0, SVG Export Plug-In . SVG Version: 6.00 Build 0)  -->
<!DOCTYPE svg PUBLIC "-//W3C//DTD SVG 1.1//EN" "http://www.w3.org/Graphics/SVG/1.1/DTD/svg11.dtd">
<svg version="1.1" id="Layer_1" xmlns="http://www.w3.org/2000/svg" xmlns:xlink="http://www.w3.org/1999/xlink" x="0px" y="0px"
	 width="1080.781px" height="952.083px" viewBox="0 0 1080.781 952.083" enable-background="new 0 0 1080.781 952.083"
	 xml:space="preserve">
<g>
	<path fill="#FFFFFF" d="M460.729,394.804c58.148-1.388,241.57-157.679,404.395-299.344L810.588,1H270.195l-63.286,109.615
		C289.191,222.588,383.746,396.641,460.729,394.804z"/>
	<path fill="#FFFFFF" d="M584.32,603.549c-56.816,1.357-212.131,137.896-352.9,266.271l38.775,67.162h540.393l43.252-74.916
		C780.93,788.836,663.488,601.66,584.32,603.549z"/>
	<path fill="#FFFFFF" d="M885.178,130.195L588.453,418.679l-241.77,229.923c0,0,56.457-81.16,34.871-161.024
		c-26.287-97.267-125.679-229.325-203.26-327.401L0,468.992L215.646,842.5l258.855-253.938l312.326-299.588
		c0,0-122.299,145.659-109.365,232.298c13.805,92.503,133.557,232.933,193.414,311.286l209.904-363.566L885.178,130.195z"/>
</g>
</svg>
